<svg xmlns="http://www.w3.org/2000/svg" viewBox="0 0 200 400">
  <title>正面図（部位別）</title>
  <!-- 頭部 -->
  <circle id="head" cx="100" cy="40" r="30" stroke="black" fill="none"/>
  <!-- 胸部 左右 -->
  <rect id="chest_left" x="60" y="70" width="40" height="100" stroke="black" fill="none"/>
  <rect id="chest_right" x="100" y="70" width="40" height="100" stroke="black" fill="none"/>
  <!-- 腹部 -->
  <rect id="abdomen_upper" x="60" y="170" width="80" height="30" stroke="black" fill="none"/>
  <rect id="abdomen_umbilical" x="60" y="200" width="80" height="30" stroke="black" fill="none"/>
  <rect id="abdomen_lower" x="60" y="230" width="80" height="30" stroke="black" fill="none"/>
  <rect id="groin_left" x="60" y="260" width="40" height="30" stroke="black" fill="none"/>
  <rect id="groin_right" x="100" y="260" width="40" height="30" stroke="black" fill="none"/>
  <!-- 上肢 左 -->
  <rect id="left_shoulder" x="40" y="90" width="20" height="20" stroke="black" fill="none"/>
  <rect id="left_upper_arm" x="30" y="110" width="20" height="40" stroke="black" fill="none"/>
  <rect id="left_elbow" x="30" y="150" width="20" height="20" stroke="black" fill="none"/>
  <rect id="left_forearm" x="30" y="170" width="20" height="40" stroke="black" fill="none"/>
  <rect id="left_hand" x="25" y="210" width="30" height="20" stroke="black" fill="none"/>
  <!-- 上肢 右 -->
  <rect id="right_shoulder" x="140" y="90" width="20" height="20" stroke="black" fill="none"/>
  <rect id="right_upper_arm" x="150" y="110" width="20" height="40" stroke="black" fill="none"/>
  <rect id="right_elbow" x="150" y="150" width="20" height="20" stroke="black" fill="none"/>
  <rect id="right_forearm" x="150" y="170" width="20" height="40" stroke="black" fill="none"/>
  <rect id="right_hand" x="145" y="210" width="30" height="20" stroke="black" fill="none"/>
  <!-- 下肢 左 -->
  <rect id="left_thigh" x="80" y="290" width="20" height="35" stroke="black" fill="none"/>
  <rect id="left_knee" x="80" y="325" width="20" height="15" stroke="black" fill="none"/>
  <rect id="left_lower_leg" x="80" y="340" width="20" height="40" stroke="black" fill="none"/>
  <rect id="left_foot" x="80" y="380" width="20" height="20" stroke="black" fill="none"/>
  <!-- 下肢 右 -->
  <rect id="right_thigh" x="100" y="290" width="20" height="35" stroke="black" fill="none"/>
  <rect id="right_knee" x="100" y="325" width="20" height="15" stroke="black" fill="none"/>
  <rect id="right_lower_leg" x="100" y="340" width="20" height="40" stroke="black" fill="none"/>
  <rect id="right_foot" x="100" y="380" width="20" height="20" stroke="black" fill="none"/>
</svg>
